<?xml version="1.0" encoding="utf-8"?>
<svg width="264px" height="280px" viewBox="0 0 264 280" version="1.1" xmlns="http://www.w3.org/2000/svg">
  <desc>Created with getavataaars.com</desc>
  <defs>
    <circle id="react-path-1" cx="120" cy="120" r="120"/>
    <path d="M12,160 C12,226.27417 65.72583,280 132,280 C198.27417,280 252,226.27417 252,160 L264,160 L264,-1.42108547e-14 L-3.19744231e-14,-1.42108547e-14 L-3.19744231e-14,160 L12,160 Z" id="react-path-2"/>
    <path d="M124,144.610951 L124,163 L128,163 L128,163 C167.764502,163 200,195.235498 200,235 L200,244 L0,244 L0,235 C-4.86974701e-15,195.235498 32.235498,163 72,163 L72,163 L76,163 L76,144.610951 C58.7626345,136.422372 46.3722246,119.687011 44.3051388,99.8812385 C38.4803105,99.0577866 34,94.0521096 34,88 L34,74 C34,68.0540074 38.3245733,63.1180731 44,62.1659169 L44,56 L44,56 C44,25.072054 69.072054,5.68137151e-15 100,0 L100,0 L100,0 C130.927946,-5.68137151e-15 156,25.072054 156,56 L156,62.1659169 C161.675427,63.1180731 166,68.0540074 166,74 L166,88 C166,94.0521096 161.51969,99.0577866 155.694861,99.8812385 C153.627775,119.687011 141.237365,136.422372 124,144.610951 Z" id="react-path-3"/>
  </defs>
  <g id="Avataaar" stroke="none" stroke-width="1" fill="none" fill-rule="evenodd">
    <g transform="translate(-825.000000, -1100.000000)" id="Avataaar/Circle">
      <g transform="translate(825.000000, 1100.000000)">
        <g id="Circle" stroke-width="1" fill-rule="evenodd" transform="translate(12.000000, 40.000000)">
          <mask id="react-mask-4" fill="white">
            <circle cx="120" cy="120" r="120"/>
          </mask>
          <circle id="Circle-Background" cx="120" cy="120" r="120" fill="#E6E6E6" style=""/>
          <g id="Color/Palette/Blue-01" mask="url(#react-mask-4)" fill="#FFD15C">
            <rect id="ðŸ–Color" x="0" y="0" width="240" height="240" style=""/>
          </g>
        </g>
        <mask id="react-mask-5" fill="white">
          <path d="M12,160 C12,226.27417 65.72583,280 132,280 C198.27417,280 252,226.27417 252,160 L264,160 L264,-1.42108547e-14 L-3.19744231e-14,-1.42108547e-14 L-3.19744231e-14,160 L12,160 Z"/>
        </mask>
        <g id="Mask" style=""/>
        <g id="Avataaar" stroke-width="1" fill-rule="evenodd" mask="url(#react-mask-5)" style="">
          <g id="Body" transform="translate(32.000000, 36.000000)" style="">
            <title>SKIN</title>
            <mask id="react-mask-6" fill="white">
              <path d="M124,144.610951 L124,163 L128,163 L128,163 C167.764502,163 200,195.235498 200,235 L200,244 L0,244 L0,235 C-4.86974701e-15,195.235498 32.235498,163 72,163 L72,163 L76,163 L76,144.610951 C58.7626345,136.422372 46.3722246,119.687011 44.3051388,99.8812385 C38.4803105,99.0577866 34,94.0521096 34,88 L34,74 C34,68.0540074 38.3245733,63.1180731 44,62.1659169 L44,56 L44,56 C44,25.072054 69.072054,5.68137151e-15 100,0 L100,0 L100,0 C130.927946,-5.68137151e-15 156,25.072054 156,56 L156,62.1659169 C161.675427,63.1180731 166,68.0540074 166,74 L166,88 C166,94.0521096 161.51969,99.0577866 155.694861,99.8812385 C153.627775,119.687011 141.237365,136.422372 124,144.610951 Z"/>
            </mask>
            <path d="M124,144.610951 L124,163 L128,163 L128,163 C167.764502,163 200,195.235498 200,235 L200,244 L0,244 L0,235 C-4.86974701e-15,195.235498 32.235498,163 72,163 L72,163 L76,163 L76,144.610951 C58.7626345,136.422372 46.3722246,119.687011 44.3051388,99.8812385 C38.4803105,99.0577866 34,94.0521096 34,88 L34,74 C34,68.0540074 38.3245733,63.1180731 44,62.1659169 L44,56 L44,56 C44,25.072054 69.072054,5.68137151e-15 100,0 L100,0 L100,0 C130.927946,-5.68137151e-15 156,25.072054 156,56 L156,62.1659169 C161.675427,63.1180731 166,68.0540074 166,74 L166,88 C166,94.0521096 161.51969,99.0577866 155.694861,99.8812385 C153.627775,119.687011 141.237365,136.422372 124,144.610951 Z" fill="#D0C6AC" style=""/>
            <g id="Skin/ðŸ‘¶ðŸ½-03-Brown" mask="url(#react-mask-6)" fill="#614335" style="">
              <g transform="translate(0.000000, 0.000000)" id="Color">
                <rect x="0" y="0" width="264" height="280" style="fill: rgb(224, 172, 105);"/>
              </g>
            </g>
            <path d="M156,79 L156,102 C156,132.927946 130.927946,158 100,158 C69.072054,158 44,132.927946 44,102 L44,79 L44,94 C44,124.927946 69.072054,150 100,150 C130.927946,150 156,124.927946 156,94 L156,79 Z" id="Neck-Shadow" fill-opacity="0.100000001" fill="#000000" mask="url(#react-mask-6)"/>
          </g>
          <g id="Clothing/Hoodie" transform="translate(0.000000, 170.000000)" style="visibility: hidden;">
            <defs>
              <path d="M108,13.0708856 C90.0813006,15.075938 76.2798424,20.5518341 76.004203,34.6449676 C50.1464329,45.5680933 32,71.1646257 32,100.999485 L32,100.999485 L32,110 L232,110 L232,100.999485 C232,71.1646257 213.853567,45.5680933 187.995797,34.6449832 C187.720158,20.5518341 173.918699,15.075938 156,13.0708856 L156,32 L156,32 C156,45.254834 145.254834,56 132,56 L132,56 C118.745166,56 108,45.254834 108,32 L108,13.0708856 Z" id="react-path-107"/>
            </defs>
            <mask id="react-mask-108" fill="white">
              <path d="M108,13.0708856 C90.0813006,15.075938 76.2798424,20.5518341 76.004203,34.6449676 C50.1464329,45.5680933 32,71.1646257 32,100.999485 L32,100.999485 L32,110 L232,110 L232,100.999485 C232,71.1646257 213.853567,45.5680933 187.995797,34.6449832 C187.720158,20.5518341 173.918699,15.075938 156,13.0708856 L156,32 L156,32 C156,45.254834 145.254834,56 132,56 L132,56 C118.745166,56 108,45.254834 108,32 L108,13.0708856 Z"/>
            </mask>
            <path d="M108,13.0708856 C90.0813006,15.075938 76.2798424,20.5518341 76.004203,34.6449676 C50.1464329,45.5680933 32,71.1646257 32,100.999485 L32,100.999485 L32,110 L232,110 L232,100.999485 C232,71.1646257 213.853567,45.5680933 187.995797,34.6449832 C187.720158,20.5518341 173.918699,15.075938 156,13.0708856 L156,32 L156,32 C156,45.254834 145.254834,56 132,56 L132,56 C118.745166,56 108,45.254834 108,32 L108,13.0708856 Z" id="Hoodie" fill="#B7C1DB" fill-rule="evenodd" style=""/>
            <g id="Color/Palette/Gray-01" mask="url(#react-mask-108)" fill-rule="evenodd" fill="#262E33" style="">
              <rect id="ðŸ–Color" x="0" y="0" width="264" height="110" style="fill: rgb(101, 150, 180);"/>
            </g>
            <path d="M102,61.7390531 L102,110 L95,110 L95,58.1502625 C97.2037542,59.4600576 99.5467694,60.6607878 102,61.7390531 Z M169,58.1502625 L169,98.5 C169,100.432997 167.432997,102 165.5,102 C163.567003,102 162,100.432997 162,98.5 L162,61.7390531 C164.453231,60.6607878 166.796246,59.4600576 169,58.1502625 Z" id="Straps" fill-rule="evenodd" mask="url(#react-mask-108)" style="fill: rgb(255, 255, 255);"/>
            <path d="M90.9601329,12.7243537 C75.9093095,15.5711782 65.5,21.2428847 65.5,32.3076923 C65.5,52.0200095 98.5376807,68 132,68 C165.462319,68 198.5,52.0200095 198.5,32.3076923 C198.5,21.2428847 188.09069,15.5711782 173.039867,12.7243537 C182.124921,16.0744598 188,21.7060546 188,31.0769231 C188,51.4689754 160.178795,68 132,68 C103.821205,68 76,51.4689754 76,31.0769231 C76,21.7060546 81.8750795,16.0744598 90.9601329,12.7243537 Z" id="Shadow" fill-opacity="0.16" fill="#000000" fill-rule="evenodd" mask="url(#react-mask-108)" style=""/>
          </g>
          <g id="Face" transform="translate(76.000000, 82.000000)" fill="#000000" style="">
            <g id="Mouth/Smile" transform="translate(2.000000, 52.000000)" style="">
              <title>MOUTH</title>
              <defs>
                <path d="M35.117844,15.1280772 C36.1757121,24.6198025 44.2259873,32 54,32 C63.8042055,32 71.8740075,24.574136 72.8917593,15.0400546 C72.9736685,14.272746 72.1167429,13 71.042767,13 C56.1487536,13 44.7379213,13 37.0868244,13 C36.0066168,13 35.0120058,14.1784435 35.117844,15.1280772 Z" id="react-path-99"/>
              </defs>
              <mask id="react-mask-100" fill="white">
                <path d="M35.117844,15.1280772 C36.1757121,24.6198025 44.2259873,32 54,32 C63.8042055,32 71.8740075,24.574136 72.8917593,15.0400546 C72.9736685,14.272746 72.1167429,13 71.042767,13 C56.1487536,13 44.7379213,13 37.0868244,13 C36.0066168,13 35.0120058,14.1784435 35.117844,15.1280772 Z"/>
              </mask>
              <path d="M35.117844,15.1280772 C36.1757121,24.6198025 44.2259873,32 54,32 C63.8042055,32 71.8740075,24.574136 72.8917593,15.0400546 C72.9736685,14.272746 72.1167429,13 71.042767,13 C56.1487536,13 44.7379213,13 37.0868244,13 C36.0066168,13 35.0120058,14.1784435 35.117844,15.1280772 Z" id="Mouth" fill-opacity="0.699999988" fill="#000000" fill-rule="evenodd"/>
              <rect id="Teeth" fill="#FFFFFF" fill-rule="evenodd" mask="url(#react-mask-100)" x="39" y="2" width="31" height="16" rx="5"/>
              <g id="Tongue" stroke-width="1" fill-rule="evenodd" mask="url(#react-mask-100)" fill="#FF4F6D">
                <g transform="translate(38.000000, 24.000000)">
                  <circle cx="11" cy="11" r="11"/>
                  <circle cx="21" cy="11" r="11"/>
                </g>
              </g>
            </g>
            <g id="Nose/Default" transform="translate(28.000000, 40.000000)" fill-opacity="0.16" style="">
              <title>NOSE</title>
              <path d="M16,8 C16,12.418278 21.372583,16 28,16 L28,16 C34.627417,16 40,12.418278 40,8" id="Nose"/>
            </g>
            <g id="Eyes/Default-ðŸ˜€" transform="translate(0.000000, 8.000000)" fill-opacity="0.599999964" style="">
              <title>EYES</title>
              <circle id="Eye" cx="30" cy="22" r="6"/>
              <circle id="Eye" cx="82" cy="22" r="6"/>
            </g>
            <g id="Eyebrow/Natural/Flat-Natural" fill-opacity="0.599999964" style="">
              <title>EYEBROWS</title>
              <path d="M38.5686071,10.7022978 C33.5865557,11.2384494 28.6553385,11.1338998 23.6562444,11.1010606 C19.8231061,11.0762636 15.91974,10.6892291 12.3246118,12.5091287 C11.6361455,12.8572921 7.8767609,14.9449324 8.00311195,16.0108688 C8.10389896,16.8633498 12.0128479,18.0636592 12.7165939,18.2838164 C16.4280826,19.4452548 19.9241869,18.9282036 23.6870976,18.5703225 C28.3024371,18.1316834 32.9139567,18.1745756 37.5322346,17.8739956 C40.6422336,17.6719334 45.4224171,16.9769469 46.8293214,13.1484895 C47.2530382,11.9954284 46.8152171,9.73353891 46.3074622,8.50642195 C46.1050066,8.01751871 45.5634602,7.84963624 45.1688335,8.14921095 C43.7560524,9.22218432 40.9851444,10.4425994 38.5686071,10.7022978" id="Fill-10" style="" transform="translate(27.500000, 13.500000) rotate(2.000000) translate(-27.500000, -13.500000) "/>
              <path d="M 95.569 16.298 C 90.587 15.762 85.655 15.866 80.656 15.899 C 76.823 15.924 72.92 16.311 69.325 14.491 C 68.636 14.143 64.877 12.055 65.003 10.989 C 65.104 10.137 69.013 8.936 69.717 8.716 C 73.428 7.555 76.924 8.072 80.687 8.43 C 85.302 8.868 89.914 8.825 94.532 9.126 C 97.642 9.328 102.422 10.023 103.829 13.852 C 104.253 15.005 103.815 17.266 103.307 18.494 C 103.105 18.982 102.563 19.15 102.169 18.851 C 100.756 17.778 97.985 16.557 95.569 16.298" id="Fill-10" style="transform-box: fill-box; transform-origin: 50% 50%;" transform="matrix(-0.999391, 0.034899, -0.034899, -0.999391, -0.000019, -0.000016)"/>
            </g>
          </g>
          <g id="Top" stroke-width="1" fill-rule="evenodd" style="">
            <defs>
              <rect id="react-path-310" x="0" y="0" width="264" height="280"/>
              <path d="M1,64 C1.34685629,65.488448 2.67275588,65.2226722 3,64 C2.53726005,62.445722 6.29594493,35.2480719 16,28 C19.618222,25.4833872 39.0082164,23.2319099 58.3126144,23.245568 C77.4086061,23.2590787 96.4208396,25.5105561 100,28 C109.704055,35.2480719 113.46274,62.445722 113,64 C113.327244,65.2226722 114.653144,65.488448 115,64 C115.719178,53.7019177 115,0.274362825 58,1 C1,1.72563718 0.280821545,53.7019177 1,64 Z" id="react-path-311"/>
            </defs>
            <mask id="react-mask-308" fill="white">
              <rect x="0" y="0" width="264" height="280"/>
            </mask>
            <g id="Mask" style=""/>
            <g id="Top/Short-Hair/The-Caesar" mask="url(#react-mask-308)" style="">
              <g transform="translate(-1.000000, 0.000000)" style="">
                <g id="Hair" stroke-width="1" fill-rule="evenodd" transform="translate(75.000000, 34.000000)" style="">
                  <title>BEARD AND HAIR</title>
                  <mask id="react-mask-309" fill="white">
                    <path d="M1,64 C1.34685629,65.488448 2.67275588,65.2226722 3,64 C2.53726005,62.445722 6.29594493,35.2480719 16,28 C19.618222,25.4833872 39.0082164,23.2319099 58.3126144,23.245568 C77.4086061,23.2590787 96.4208396,25.5105561 100,28 C109.704055,35.2480719 113.46274,62.445722 113,64 C113.327244,65.2226722 114.653144,65.488448 115,64 C115.719178,53.7019177 115,0.274362825 58,1 C1,1.72563718 0.280821545,53.7019177 1,64 Z"/>
                  </mask>
                  <path d="M 1 64 C 1 65.528 2.673 65.223 3 64 C 2.537 62.446 6.296 35.248 16 28 C 19.618 25.483 39.008 23.232 58.313 23.246 C 77.409 23.259 96.421 25.511 100 28 C 109.704 35.248 113.463 62.446 113 64 C 113.327 65.223 114.653 65.488 115 64 C 116.796 19.779 115 0.274 58 1 C 1 1.726 1 -22.723 1 64 Z" id="Caesar" style="fill: rgb(44, 27, 24);"/>
                  <g id="Skin/ðŸ‘¶ðŸ½-03-Brown" mask="url(#react-mask-309)" fill="#2C1B18" style="visibility: hidden;">
                    <g transform="translate(0.000000, 0.000000) " id="Color">
                      <rect x="0" y="0" width="264" height="280"/>
                    </g>
                  </g>
                  <g id="Facial-Hair/Beard-Light" transform="matrix(1, 0, 0, 1, -26.461548, 38.999992)" style="">
                    <defs>
                      <path d="M101.428403,98.1685688 C98.9148372,100.462621 96.23722,101.494309 92.8529444,100.772863 C92.2705777,100.648833 89.8963391,96.2345713 83.9998344,96.2345713 C78.1033297,96.2345713 75.7294253,100.648833 75.1467245,100.772863 C71.7624488,101.494309 69.0848316,100.462621 66.5712661,98.1685688 C61.8461772,93.855604 57.9166219,87.9081858 60.2778299,81.4191814 C61.5083844,78.0369425 63.5097479,74.3237342 67.1506257,73.2459109 C71.0384163,72.0955419 76.4968931,73.2439051 80.4147542,72.4582708 C81.6840664,72.2035248 83.0706538,71.7508657 83.9998344,71 C84.929015,71.7508657 86.3159365,72.2035248 87.5845805,72.4582708 C91.5027758,73.2439051 96.9612525,72.0955419 100.849043,73.2459109 C104.489921,74.3237342 106.491284,78.0369425 107.722173,81.4191814 C110.083381,87.9081858 106.153826,93.855604 101.428403,98.1685688 M140.081033,26 C136.670693,34.4002532 137.987774,44.8580348 137.356666,53.6758724 C136.844038,60.8431942 135.33712,71.5857526 128.972858,76.214531 C125.718361,78.5816138 119.79436,82.5598986 115.54187,81.4501943 C112.614539,80.6863848 112.302182,72.290096 108.455284,69.1469801 C104.09172,65.5823153 98.6429854,64.0160432 93.1491481,64.2578722 C90.7785381,64.3622683 85.9841367,64.3374908 83.9999331,66.1604584 C82.0157295,64.3374908 77.2216647,64.3622683 74.8510547,64.2578722 C69.3568808,64.0160432 63.9081467,65.5823153 59.5445817,69.1469801 C55.6976839,72.290096 55.3856641,80.6863848 52.4583326,81.4501943 C48.2058427,82.5598986 42.2818421,78.5816138 39.0270077,76.214531 C32.6624096,71.5857526 31.1561652,60.8431942 30.642864,53.6758724 C30.0120926,44.8580348 31.3291729,34.4002532 27.9188335,26 C26.2597768,26 27.3540339,42.1288693 27.3540339,42.1288693 L27.3540339,62.4851205 C27.3856735,77.7732046 36.935095,100.655445 58.1080116,109.393004 C63.2861266,111.52982 75.0153111,115 83.9999331,115 C92.9845551,115 104.71374,111.860188 109.891855,109.723371 C131.064771,100.985813 140.614193,77.7732046 140.646169,62.4851205 L140.646169,42.1288693 C140.646169,42.1288693 141.740089,26 140.081033,26" id="react-path-363"/>
                    </defs>
                    <mask id="react-mask-362" fill="white">
                      <path d="M101.428403,98.1685688 C98.9148372,100.462621 96.23722,101.494309 92.8529444,100.772863 C92.2705777,100.648833 89.8963391,96.2345713 83.9998344,96.2345713 C78.1033297,96.2345713 75.7294253,100.648833 75.1467245,100.772863 C71.7624488,101.494309 69.0848316,100.462621 66.5712661,98.1685688 C61.8461772,93.855604 57.9166219,87.9081858 60.2778299,81.4191814 C61.5083844,78.0369425 63.5097479,74.3237342 67.1506257,73.2459109 C71.0384163,72.0955419 76.4968931,73.2439051 80.4147542,72.4582708 C81.6840664,72.2035248 83.0706538,71.7508657 83.9998344,71 C84.929015,71.7508657 86.3159365,72.2035248 87.5845805,72.4582708 C91.5027758,73.2439051 96.9612525,72.0955419 100.849043,73.2459109 C104.489921,74.3237342 106.491284,78.0369425 107.722173,81.4191814 C110.083381,87.9081858 106.153826,93.855604 101.428403,98.1685688 M140.081033,26 C136.670693,34.4002532 137.987774,44.8580348 137.356666,53.6758724 C136.844038,60.8431942 135.33712,71.5857526 128.972858,76.214531 C125.718361,78.5816138 119.79436,82.5598986 115.54187,81.4501943 C112.614539,80.6863848 112.302182,72.290096 108.455284,69.1469801 C104.09172,65.5823153 98.6429854,64.0160432 93.1491481,64.2578722 C90.7785381,64.3622683 85.9841367,64.3374908 83.9999331,66.1604584 C82.0157295,64.3374908 77.2216647,64.3622683 74.8510547,64.2578722 C69.3568808,64.0160432 63.9081467,65.5823153 59.5445817,69.1469801 C55.6976839,72.290096 55.3856641,80.6863848 52.4583326,81.4501943 C48.2058427,82.5598986 42.2818421,78.5816138 39.0270077,76.214531 C32.6624096,71.5857526 31.1561652,60.8431942 30.642864,53.6758724 C30.0120926,44.8580348 31.3291729,34.4002532 27.9188335,26 C26.2597768,26 27.3540339,42.1288693 27.3540339,42.1288693 L27.3540339,62.4851205 C27.3856735,77.7732046 36.935095,100.655445 58.1080116,109.393004 C63.2861266,111.52982 75.0153111,115 83.9999331,115 C92.9845551,115 104.71374,111.860188 109.891855,109.723371 C131.064771,100.985813 140.614193,77.7732046 140.646169,62.4851205 L140.646169,42.1288693 C140.646169,42.1288693 141.740089,26 140.081033,26"/>
                    </mask>
                    <path d="M101.428403,98.1685688 C98.9148372,100.462621 96.23722,101.494309 92.8529444,100.772863 C92.2705777,100.648833 89.8963391,96.2345713 83.9998344,96.2345713 C78.1033297,96.2345713 75.7294253,100.648833 75.1467245,100.772863 C71.7624488,101.494309 69.0848316,100.462621 66.5712661,98.1685688 C61.8461772,93.855604 57.9166219,87.9081858 60.2778299,81.4191814 C61.5083844,78.0369425 63.5097479,74.3237342 67.1506257,73.2459109 C71.0384163,72.0955419 76.4968931,73.2439051 80.4147542,72.4582708 C81.6840664,72.2035248 83.0706538,71.7508657 83.9998344,71 C84.929015,71.7508657 86.3159365,72.2035248 87.5845805,72.4582708 C91.5027758,73.2439051 96.9612525,72.0955419 100.849043,73.2459109 C104.489921,74.3237342 106.491284,78.0369425 107.722173,81.4191814 C110.083381,87.9081858 106.153826,93.855604 101.428403,98.1685688 M140.081033,26 C136.670693,34.4002532 137.987774,44.8580348 137.356666,53.6758724 C136.844038,60.8431942 135.33712,71.5857526 128.972858,76.214531 C125.718361,78.5816138 119.79436,82.5598986 115.54187,81.4501943 C112.614539,80.6863848 112.302182,72.290096 108.455284,69.1469801 C104.09172,65.5823153 98.6429854,64.0160432 93.1491481,64.2578722 C90.7785381,64.3622683 85.9841367,64.3374908 83.9999331,66.1604584 C82.0157295,64.3374908 77.2216647,64.3622683 74.8510547,64.2578722 C69.3568808,64.0160432 63.9081467,65.5823153 59.5445817,69.1469801 C55.6976839,72.290096 55.3856641,80.6863848 52.4583326,81.4501943 C48.2058427,82.5598986 42.2818421,78.5816138 39.0270077,76.214531 C32.6624096,71.5857526 31.1561652,60.8431942 30.642864,53.6758724 C30.0120926,44.8580348 31.3291729,34.4002532 27.9188335,26 C26.2597768,26 27.3540339,42.1288693 27.3540339,42.1288693 L27.3540339,62.4851205 C27.3856735,77.7732046 36.935095,100.655445 58.1080116,109.393004 C63.2861266,111.52982 75.0153111,115 83.9999331,115 C92.9845551,115 104.71374,111.860188 109.891855,109.723371 C131.064771,100.985813 140.614193,77.7732046 140.646169,62.4851205 L140.646169,42.1288693 C140.646169,42.1288693 141.740089,26 140.081033,26" id="Lite-Beard" fill-rule="evenodd" style="fill: rgb(44, 27, 24);"/>
                    <g id="Color/Hair/Brown" mask="url(#react-mask-362)" fill="#4A312C" style="">
                      <g transform="translate(-32.000000, 0.000000)" id="g-1">
                        <rect width="264" height="244" style="fill: rgb(44, 27, 24); opacity: 0.9;"/>
                      </g>
                    </g>
                  </g>
                </g>
                <g id="Top/_Resources/Prescription-02" fill="none" transform="translate(62.000000, 85.000000)" stroke-width="1" style="">
                  <title>SPECS</title>
                  <defs>
                    <filter x="-0.8%" y="-2.4%" width="101.5%" height="109.8%" filterUnits="objectBoundingBox" id="react-filter-312">
                      <feOffset dx="0" dy="2" in="SourceAlpha" result="shadowOffsetOuter1"/>
                      <feColorMatrix values="0 0 0 0 0   0 0 0 0 0   0 0 0 0 0  0 0 0 0.2 0" type="matrix" in="shadowOffsetOuter1" result="shadowMatrixOuter1"/>
                      <feMerge>
                        <feMergeNode in="shadowMatrixOuter1"/>
                        <feMergeNode in="SourceGraphic"/>
                      </feMerge>
                    </filter>
                  </defs>
                  <g id="Wayfarers" filter="url(#react-filter-312)" transform="translate(6.000000, 7.000000)" fill="#252C2F">
                    <path d="M34,41 L31.2421498,41 C17.3147125,41 9,33.3359286 9,20.5 C9,10.127 10.8170058,0 32.5299306,0 L35.4700694,0 C57.1829942,0 59,10.127 59,20.5 C59,32.5686429 48.7212748,41 34,41 Z M32.3853606,6 C13,6 13,12.8410159 13,21.5015498 C13,28.5719428 16.116254,37 30.9709365,37 L34,37 C46.3649085,37 55,30.6270373 55,21.5015498 C55,12.8410159 55,6 35.6146394,6 L32.3853606,6 Z" id="Left" fill-rule="nonzero"/>
                    <path d="M96,41 L93.2421498,41 C79.3147125,41 71,33.3359286 71,20.5 C71,10.127 72.8170058,0 94.5299306,0 L97.4700694,0 C119.182994,0 121,10.127 121,20.5 C121,32.5686429 110.721275,41 96,41 Z M94.3853606,6 C75,6 75,12.8410159 75,21.5015498 C75,28.5719428 78.1194833,37 92.9709365,37 L96,37 C108.364909,37 117,30.6270373 117,21.5015498 C117,12.8410159 117,6 97.6146394,6 L94.3853606,6 Z" id="Right" fill-rule="nonzero"/>
                    <path d="M2.95454545,5.77156439 C3.64590909,5.09629136 11.2095455,0 32.5,0 C50.3513636,0 54.1302273,1.85267217 59.8502273,4.6518809 L60.2689233,4.85850899 C60.6666014,4.99901896 62.7002447,5.68982981 65.0790606,5.76579519 C67.2462948,5.67278567 69.1000195,5.08540191 69.641698,4.89719767 C76.1703915,1.7220864 82.5610971,0 97.5,0 C118.790455,0 126.354091,5.09629136 127.045455,5.77156439 C128.679318,5.77156439 130,7.06150904 130,8.65734659 L130,11.5431288 C130,13.1389663 128.679318,14.428911 127.045455,14.428911 C127.045455,14.428911 120.143997,14.428911 120.143997,17.3146932 C120.143997,20.2004754 118.181818,13.1389663 118.181818,11.5431288 L118.181818,8.73240251 C114.578575,7.35340151 108.128411,4.78617535 97.5,4.78617535 C85.6584651,4.78617535 79.7610984,6.88602813 74.7022935,8.97112368 L74.7588636,9.10752861 L74.7563667,11.0937608 L72.5391666,16.4436339 L69.8004908,15.3608351 C69.5558969,15.2641292 69.0281396,15.090392 68.2963505,14.9099044 C66.256272,14.4067419 64.1589087,14.253569 62.3040836,14.6343084 C61.6235903,14.7739931 60.9922286,14.9836085 60.4128127,15.266732 L57.7704824,16.5578701 L55.1266751,11.3962031 L55.2440909,9.10175705 L55.3248203,8.90683855 C50.9620526,6.87386374 46.9392639,4.78617535 32.5,4.78617535 C21.8721459,4.78617535 15.422131,7.3524397 11.8181818,8.7314671 L11.8181818,11.5431288 C11.8181818,13.1389663 8.86363636,20.2004754 8.86363636,17.3146932 C8.86363636,14.428911 2.95454545,14.428911 2.95454545,14.428911 C1.32363636,14.428911 0,13.1389663 0,11.5431288 L0,8.65734659 C0,7.06150904 1.32363636,5.77156439 2.95454545,5.77156439 Z" id="Stuff" fill-rule="nonzero"/>
                  </g>
                </g>
              </g>
            </g>
          </g>
        </g>
      </g>
    </g>
  </g>
  <g id="Clothing/Blazer-+-Shirt" transform="matrix(1, 0, 0, 1, -0.461548, 169)" style="">
    <title>SHIRT</title>
    <defs>
      <path d="M133.960472,0.294916112 C170.936473,3.32499816 200,34.2942856 200,72.0517235 L200,81 L0,81 L0,72.0517235 C1.22536245e-14,33.9525631 29.591985,2.76498122 67.0454063,0.219526408 C67.0152598,0.593114549 67,0.969227185 67,1.34762511 C67,13.2107177 81.9984609,22.8276544 100.5,22.8276544 C119.001539,22.8276544 134,13.2107177 134,1.34762511 C134,0.994669088 133.986723,0.64370138 133.960472,0.294916112 Z" id="react-path-127"/>
    </defs>
    <g id="Shirt" transform="translate(32.000000, 29.000000)">
      <mask id="react-mask-128" fill="white">
        <path d="M133.960472,0.294916112 C170.936473,3.32499816 200,34.2942856 200,72.0517235 L200,81 L0,81 L0,72.0517235 C1.22536245e-14,33.9525631 29.591985,2.76498122 67.0454063,0.219526408 C67.0152598,0.593114549 67,0.969227185 67,1.34762511 C67,13.2107177 81.9984609,22.8276544 100.5,22.8276544 C119.001539,22.8276544 134,13.2107177 134,1.34762511 C134,0.994669088 133.986723,0.64370138 133.960472,0.294916112 Z"/>
      </mask>
      <path d="M133.960472,0.294916112 C170.936473,3.32499816 200,34.2942856 200,72.0517235 L200,81 L0,81 L0,72.0517235 C1.22536245e-14,33.9525631 29.591985,2.76498122 67.0454063,0.219526408 C67.0152598,0.593114549 67,0.969227185 67,1.34762511 C67,13.2107177 81.9984609,22.8276544 100.5,22.8276544 C119.001539,22.8276544 134,13.2107177 134,1.34762511 C134,0.994669088 133.986723,0.64370138 133.960472,0.294916112 Z" id="Clothes" fill="#E6E6E6"/>
      <g id="Color/Palette/Black" mask="url(#react-mask-128)" fill="#262E33">
        <g transform="translate(-32.000000, -29.000000)" id="g-2">
          <rect x="0" y="0" width="264" height="110"/>
        </g>
      </g>
      <g id="Shadowy" opacity="0.599999964" mask="url(#react-mask-128)" fill-opacity="0.16" fill="#000000">
        <g transform="translate(60.000000, -25.000000)" id="Hola-ðŸ‘‹ðŸ¼">
          <ellipse cx="40.5" cy="27.8476251" rx="39.6351047" ry="26.9138272"/>
        </g>
      </g>
    </g>
    <g id="Blazer" transform="translate(32.000000, 28.000000)">
      <path d="M68.784807,1.12222847 C30.512317,2.80409739 -1.89486556e-14,34.3646437 -1.42108547e-14,73.0517235 L0,73.0517235 L0,82 L69.3616767,82 C65.9607412,69.9199941 64,55.7087296 64,40.5 C64,26.1729736 65.7399891,12.7311115 68.784807,1.12222847 Z M131.638323,82 L200,82 L200,73.0517235 C200,34.7067641 170.024954,3.36285166 132.228719,1.17384225 C135.265163,12.7709464 137,26.1942016 137,40.5 C137,55.7087296 135.039259,69.9199941 131.638323,82 Z" id="Saco" fill="#3A4C5A"/>
      <path d="M149,58 L158.555853,50.83311 L158.555853,50.83311 C159.998897,49.7508275 161.987779,49.7682725 163.411616,50.8757011 L170,56 L149,58 Z" id="Pocket-hanky" fill="#E6E6E6"/>
      <path d="M 76.594 1.132 C 71.604 18.683 66.667 46.667 74 82 L 58 82 L 44 46 L 50 37 L 44 31 L 63 1 C 65.028 0.369 74.622 1.168 76.594 1.132 Z" id="Wing" fill="#2F4351"/>
      <path d="M 157.091 1.783 C 153.091 21.116 148.667 46.667 156 82 L 140 82 L 126 46 L 132 37 L 126 31 L 145 1 C 147.028 0.369 155.118 1.819 157.091 1.783 Z" id="Wing" fill="#2F4351" transform="translate(141.000000, 41.000000) scale(-1, 1) translate(-141.000000, -41.000000) "/>
    </g>
  </g>
</svg>