<svg version="1.2" xmlns="http://www.w3.org/2000/svg" viewBox="0 0 42 42" width="42" height="42">
	<title>icon-design-svg</title>
	<defs>
		<linearGradient id="g1" x2="1" gradientUnits="userSpaceOnUse" gradientTransform="matrix(34.533,38.133,-33.541,30.375,3.267,1)">
			<stop offset=".259" stop-color="#ffdb6e"/>
			<stop offset="1" stop-color="#ffbc5e"/>
		</linearGradient>
		<linearGradient id="g2" x2="1" gradientUnits="userSpaceOnUse" gradientTransform="matrix(6.576,7.238,-12.493,11.35,29.602,29.21)">
			<stop offset=".259" stop-color="#ffdb6e"/>
			<stop offset="1" stop-color="#ffbc5e"/>
		</linearGradient>
		<linearGradient id="g3" x2="1" gradientUnits="userSpaceOnUse" gradientTransform="matrix(6.576,7.238,-12.493,11.35,29.602,29.21)">
			<stop offset=".259" stop-color="#ffdb6e"/>
			<stop offset="1" stop-color="#ffbc5e"/>
		</linearGradient>
		<linearGradient id="g4" x2="1" gradientUnits="userSpaceOnUse" gradientTransform="matrix(34.533,38.133,-33.541,30.375,3.267,1)">
			<stop offset=".259" stop-color="#ffdb6e"/>
			<stop offset="1" stop-color="#ffbc5e"/>
		</linearGradient>
		<linearGradient id="g5" x2="1" gradientUnits="userSpaceOnUse" gradientTransform="matrix(34.533,38.133,-33.541,30.375,3.267,1)">
			<stop offset=".259" stop-color="#ffdb6e"/>
			<stop offset="1" stop-color="#ffbc5e"/>
		</linearGradient>
	</defs>
	<style>
		.s0 { opacity: .1;fill: url(#g1) } 
		.s1 { fill: url(#g2);stroke: url(#g3);stroke-width: .4 } 
		.s2 { fill: url(#g4);stroke: url(#g5);stroke-width: .4 } 
	</style>
	<g id="Layer 1">
		<path id="Layer" fill-rule="evenodd" class="s0" d="m40.6 19.8c-0.2-0.1-0.4 0-0.6 0.1l-1.8 1.8v-12c0-0.3-0.2-0.6-0.5-0.6h-4.6l1.7-1.6 1.6-1.6c0.3-0.3 0.5-0.8 0.5-1.3 0-0.5-0.2-0.9-0.5-1.2l-1.9-1.9c-0.3-0.3-0.8-0.5-1.2-0.5-0.5 0-1 0.2-1.3 0.5l-1.6 1.6-1.9 1.9-4.1 4.1h-18.2v-5.8c0-0.3-0.3-0.6-0.6-0.6-2.5 0-4.6 2.1-4.6 4.6v25.1q0 0 0 0.1c0.1 1.1 0.6 2.1 1.3 2.8 0.9 0.9 2 1.3 3.1 1.3h18l-3.4 3.4c-0.2 0.2-0.2 0.4-0.1 0.6 0.1 0.3 0.3 0.4 0.5 0.4h20c0.3 0 0.6-0.3 0.6-0.6v-20c0-0.3-0.1-0.5-0.4-0.6zm-7.8-17.4c0.3-0.3 0.7-0.3 0.9 0l1.8 1.8c0.3 0.2 0.3 0.6 0 0.9l-1.1 1.1-2.7-2.7zm-2 2l2.7 2.7-1.1 1.1-2.7-2.7zm-12.4 17.4l-1.7 0.6-1.1-1.1 0.5-1.7zm17.5 8.4l-5.7 5.7c0 0 0 0.1 0.1 0.1h5.8v-5.7c0-0.1-0.2-0.2-0.2-0.1zm-19.8-11.7l3.5 3.5 13-13-3.5-3.5z"/>
		<path id="Layer" class="s1" d="m36.4 29.3c-0.2-0.1-0.5-0.1-0.6 0.1l-6.5 6.4c-0.1 0.2-0.2 0.4-0.1 0.7 0.1 0.2 0.3 0.3 0.6 0.3h6.4c0.3 0 0.6-0.2 0.6-0.6v-6.4c0-0.2-0.2-0.5-0.4-0.5zm-5.2 6.3l4.4-4.4v4.4z"/>
		<path id="Layer" class="s2" d="m40.6 19.8c-0.2-0.1-0.4 0-0.6 0.1l-1.8 1.8v-12c0-0.3-0.2-0.6-0.5-0.6h-4.6l1.7-1.6q0 0 0 0l1.6-1.6c0.3-0.3 0.5-0.8 0.5-1.3 0-0.5-0.2-0.9-0.5-1.2l-1.9-1.9c-0.3-0.3-0.8-0.5-1.2-0.5-0.5 0-1 0.2-1.3 0.5l-1.6 1.6-1.9 1.9-4.1 4.1h-18.2v-5.8c0-0.3-0.3-0.6-0.6-0.6-2.5 0-4.6 2.1-4.6 4.6v25.1q0 0 0 0.1c0.1 1.1 0.6 2.1 1.3 2.8 0.9 0.9 2 1.3 3.1 1.3h18l-3.4 3.4c-0.2 0.2-0.2 0.4-0.1 0.6 0.1 0.3 0.3 0.4 0.5 0.4h20c0.3 0 0.6-0.3 0.6-0.6v-20c0-0.3-0.1-0.5-0.4-0.6zm-7.8-17.4c0.3-0.3 0.7-0.3 0.9 0l1.8 1.8c0.3 0.2 0.3 0.6 0 0.9l-1.1 1.1-2.7-2.7zm7 24.6h-1.1c-0.3 0-0.6 0.3-0.6 0.6 0 0.4 0.3 0.6 0.6 0.6h1.1v1.8h-1.1c-0.3 0-0.6 0.3-0.6 0.6 0 0.3 0.3 0.6 0.6 0.6h1.1v1.7h-1.1c-0.3 0-0.6 0.3-0.6 0.6 0 0.4 0.3 0.6 0.6 0.6h1.1v1.8h-1.1c-0.3 0-0.6 0.3-0.6 0.6 0 0.3 0.3 0.6 0.6 0.6h1.1v2.8h-18l5.9-6c0.2-0.2 0.2-0.6 0-0.8q0 0-0.1-0.1c-0.2-0.1-0.5-0.1-0.7 0.1l-2.4 2.4h-19.1c-1.8 0-3.2-1.4-3.3-3.2q0-0.2 0-0.3 0 0 0 0 0-0.1 0.1-0.2 0 0 0 0 0-0.1 0-0.1 0 0 0-0.1 0 0 0-0.1 0 0 0 0 0.1-0.1 0.1-0.1 0-0.1 0-0.1 0-0.1 0-0.1 0 0 0.1-0.1 0 0 0 0 0-0.1 0-0.2 0.1 0 0.1 0c0.4-0.9 1.3-1.6 2.4-1.9q0 0 0 0 0 0 0.1 0 0 0 0 0 0.1 0 0.2 0 0 0 0 0 0.1 0 0.1 0 0.1 0 0.1 0 0.1 0 0.2 0c0.3 0 0.5-0.3 0.5-0.6v-4.3c0-0.3-0.2-0.6-0.5-0.6-0.4 0-0.6 0.3-0.6 0.6v3.7c-1 0.2-1.9 0.6-2.7 1.3q-0.1 0.1-0.2 0.2v-21.9c0-1.7 1.2-3.1 2.9-3.4v17.8c0 0.3 0.2 0.5 0.6 0.5 0.3 0 0.5-0.2 0.5-0.5v-11.4h17.1l-3.3 3.2c-0.2 0.3-0.2 0.6 0 0.9 0.3 0.2 0.6 0.2 0.9 0l4.2-4.3q0 0 0 0l3.9-3.9 2.7 2.7-0.4 0.4q0 0 0 0l-11.8 11.8-2.7-2.7 2.3-2.3c0.3-0.2 0.3-0.6 0-0.8-0.2-0.3-0.6-0.3-0.8 0l-2.7 2.7q-0.1 0-0.1 0.1 0 0 0 0 0 0 0 0 0 0 0 0 0 0.1 0 0.1 0 0-0.1 0 0 0 0 0 0 0 0 0l-1.1 3.3-0.8 2.2q0 0 0 0.1h-2c-0.3 0-0.6 0.3-0.6 0.6 0 0.3 0.3 0.6 0.6 0.6h16.3c0.3 0 0.6-0.3 0.6-0.6 0-0.3-0.3-0.6-0.6-0.6h-11.7l3.6-1.3q0 0 0 0 0 0 0.1 0 0 0 0 0 0 0 0 0 0 0 0 0 0 0 0.1-0.1 0 0 0 0 0 0 0 0l12.1-12.1h5.1v12.6l-8.4 8.4c-0.2 0.2-0.2 0.6 0 0.8q0 0 0 0 0.2 0.2 0.4 0.2 0.2 0 0.4-0.2 0 0 0 0l10.4-10.4zm-9-22.6l2.7 2.7-1.1 1.1-2.7-2.7zm-12.4 17.4l-1.7 0.6-1.1-1.1 0.5-1.7z"/>
	</g>
</svg>