<svg version="1.2" xmlns="http://www.w3.org/2000/svg" viewBox="0 0 2000 2000" width="2000" height="2000">
	<title>756dbb02-1b83-4ba2-b543-e5d1cd9a1e2f</title>
	<style>
		.s0 { fill: #f6d708 } 
		.s1 { fill: #23bfd4 } 
		.s2 { fill: #170f32 } 
		.s3 { fill: #cd4c9a } 
		.s4 { fill: #ffffff } 
	</style>
	<g id="bg">
	</g>
	<g id="logo">
		<g id="&lt;Group&gt;">
			<g id="&lt;Group&gt;">
				<g id="&lt;Group&gt;">
				</g>
			</g>
		</g>
		<g id="&lt;Group&gt;">
			<g id="&lt;Group&gt;">
				<path id="&lt;Path&gt;" fill-rule="evenodd" class="s0" d="m364.4 871.2h59.7v56.6h-59.7z"/>
				<path id="&lt;Path&gt;" fill-rule="evenodd" class="s1" d="m607.5 1489.8v34c0 11.8 10.1 21.3 22.5 21.3h109.7c12.3 0 22.4-9.5 22.4-21.3v-34z"/>
				<path id="&lt;Path&gt;" fill-rule="evenodd" class="s1" d="m1308.5 561.9c-75.7-72-176.2-111.6-283.2-111.6h-395.3c-12.4 0-22.5 9.6-22.5 21.4v893.6h44.9v-872.3h372.9c196.1 0 355.5 151.8 355.5 338.3 0 186.5-159.4 338.2-355.5 338.2h-285.6c-12.4 0-22.5 9.6-22.5 21.4v298.9h44.9v-277.6h263.2c107 0 207.5-39.6 283.2-111.5 75.6-72 117.2-167.7 117.2-269.4 0-101.8-41.6-197.5-117.2-269.4z"/>
				<path id="&lt;Path&gt;" fill-rule="evenodd" class="s2" d="m997.8 630.8h-150v56.5h150c85.5 0 155 65.8 155 146.6 0 80.9-69.5 146.7-155 146.7h-130.9v-226.7h-59.7v254.9c0 15.6 13.4 28.3 29.9 28.3h160.7c118.4 0 214.7-91.1 214.7-203.2 0-112-96.3-203.1-214.7-203.1z"/>
				<path id="&lt;Path&gt;" fill-rule="evenodd" class="s2" d="m1407.7 475.6c-100.6-95.2-234.4-147.6-376.7-147.6h-525.9c-16.5 0-29.9 12.7-29.9 28.3v210.8h59.7v-182.6h496.1c260.8 0 472.9 200.7 472.9 447.4 0 246.7-212.1 447.4-472.9 447.4h-174.2c-16.5 0-29.9 12.7-29.9 28.3v308.3h-292v-618.2h-59.7v646.5c0 15.5 13.4 28.2 29.9 28.2h351.7c16.4 0 29.8-12.7 29.8-28.2v-308.4h144.4c142.3 0 276.1-52.4 376.7-147.5 100.6-95.2 156-221.8 156-356.4 0-134.6-55.4-261.1-156-356.3z"/>
				<path id="&lt;Path&gt;" fill-rule="evenodd" class="s3" d="m475.2 871.2h534.1v56.6h-534.1z"/>
				<path id="&lt;Path&gt;" fill-rule="evenodd" class="s3" d="m435.3 630.8h359.9v56.5h-359.9z"/>
				<path id="&lt;Path&gt;" fill-rule="evenodd" class="s2" d="m246 751h620.9v56.5h-620.9z"/>
				<path id="&lt;Path&gt;" fill-rule="evenodd" class="s3" d="m564.8 1448.5h420.6v56.5h-420.6z"/>
				<path id="&lt;Path&gt;" fill-rule="evenodd" class="s0" d="m1033.4 1448.5h59.7v56.5h-59.7z"/>
				<path id="&lt;Path&gt;" fill-rule="evenodd" class="s4" d="m304.4 1337.1h376.8v56.5h-376.8z"/>
				<path id="&lt;Path&gt;" fill-rule="evenodd" class="s3" d="m1212.5 1022.6h436.5v56.5h-436.5z"/>
			</g>
			<path id="&lt;Path&gt;" fill-rule="evenodd" class="s0" d="m1694.6 1022.6h59.7v56.5h-59.7z"/>
		</g>
		<g id="&lt;Group&gt;">
			<g id="&lt;Group&gt;">
				<g id="&lt;Group&gt;">
				</g>
				<g id="&lt;Group&gt;">
				</g>
			</g>
		</g>
		<g id="&lt;Group&gt;">
			<g id="&lt;Group&gt;">
			</g>
		</g>
	</g>
	<g id="text">
		<g id="&lt;Group&gt;">
			<g id="&lt;Group&gt;">
			</g>
			<g id="&lt;Group&gt;">
				<g id="&lt;Group&gt;">
				</g>
				<g id="&lt;Group&gt;">
				</g>
			</g>
		</g>
	</g>
</svg>