<svg version="1.2" xmlns="http://www.w3.org/2000/svg" viewBox="0 0 2000 2000" width="2000" height="2000">
	<title>756dbb02-1b83-4ba2-b543-e5d1cd9a1e2f</title>
	<style>
		.s0 { fill: #fcfcfc } 
		.s1 { fill: #23bfd4 } 
		.s2 { fill: #cd4c9a } 
		.s3 { fill: #f6eb0f } 
	</style>
	<g id="bg">
	</g>
	<g id="logo">
		<g id="&lt;Group&gt;">
			<g id="&lt;Group&gt;">
				<g id="&lt;Group&gt;">
					<path id="&lt;Compound Path&gt;" fill-rule="evenodd" class="s0" d="m1456.4 414.5c-106.6-110.1-248.3-170.8-398.9-170.8h-557c-17.5 0-31.7 14.7-31.7 32.7v210.8 33.2 1246.6c0 18 14.2 32.7 31.7 32.7h372.4c17.5 0 31.7-14.7 31.7-32.7v-356.8h152.9c150.7 0 292.3-60.7 398.9-170.9 106.5-110.1 165.2-256.6 165.2-412.4 0-155.8-58.7-302.2-165.2-412.4zm-490.1 541.8h-138.6v-339.5h136.1c90.1 0 165.3 74 166.6 167.1 1.4 94.8-72.7 172.4-164.1 172.4z"/>
				</g>
				<path id="&lt;Path&gt;" fill-rule="evenodd" class="s1" d="m295.5 829.8h63.3v65.4h-63.3z"/>
				<path id="&lt;Path&gt;" fill-rule="evenodd" class="s1" d="m553 1545.6v39.4c0 13.6 10.7 24.7 23.8 24.7h116.1c13.1 0 23.8-11.1 23.8-24.7v-39.4z"/>
				<path id="&lt;Path&gt;" fill-rule="evenodd" class="s1" d="m1295.3 471.7c-80.1-83.3-186.6-129.1-299.8-129.1h-418.7c-13.1 0-23.8 11.1-23.8 24.7v1034.3h47.6v-1009.6h394.9c207.6 0 376.5 175.6 376.5 391.5 0 215.9-168.9 391.5-376.5 391.5h-302.6c-13.1 0-23.7 11.1-23.7 24.7v345.9h47.5v-321.2h278.8c113.2 0 219.7-45.8 299.8-129.1 80.1-83.3 124.2-194 124.2-311.8 0-117.8-44.1-228.5-124.2-311.8z"/>
				<path id="&lt;Path&gt;" fill-rule="evenodd" class="s2" d="m966.3 551.4h-158.8v65.4h158.8c90.5 0 164.1 76.2 164.1 169.8 0 93.6-73.6 169.7-164.1 169.7h-138.6v-262.4h-63.2v295.1c0 18 14.1 32.7 31.6 32.7h170.2c125.4 0 227.4-105.5 227.4-235.1 0-129.7-102-235.2-227.4-235.2z"/>
				<path id="&lt;Path&gt;" fill-rule="evenodd" class="s2" d="m1400.4 371.8c-106.6-110.1-248.2-170.8-398.9-170.8h-557c-17.5 0-31.6 14.7-31.6 32.7v244h63.2v-211.3h525.4c276.2 0 500.8 232.3 500.8 517.8 0 285.6-224.6 517.9-500.8 517.9h-184.6c-17.4 0-31.6 14.6-31.6 32.7v356.8h-309.2v-715.5h-63.2v748.2c0 18.1 14.1 32.7 31.6 32.7h372.4c17.5 0 31.7-14.6 31.7-32.7v-356.8h152.9c150.7 0 292.3-60.7 398.9-170.8 106.5-110.2 165.2-256.7 165.2-412.5 0-155.8-58.7-302.2-165.2-412.4z"/>
				<path id="&lt;Path&gt;" fill-rule="evenodd" class="s3" d="m412.9 829.8h565.5v65.4h-565.5z"/>
				<path id="&lt;Path&gt;" fill-rule="evenodd" class="s2" d="m370.6 551.4h381.2v65.4h-381.2z"/>
				<path id="&lt;Path&gt;" fill-rule="evenodd" class="s3" d="m232 690.6h595.7v65.4h-595.7z"/>
				<path id="&lt;Path&gt;" fill-rule="evenodd" class="s3" d="m507.7 1497.8h445.5v65.4h-445.5z"/>
				<path id="&lt;Path&gt;" fill-rule="evenodd" class="s1" d="m1004 1497.8h63.3v65.4h-63.3z"/>
				<path id="&lt;Path&gt;" fill-rule="evenodd" class="s3" d="m232 1368.9h399v65.4h-399z"/>
				<path id="&lt;Path&gt;" fill-rule="evenodd" class="s3" d="m1193.7 1004.9h462.2v65.4h-462.2z"/>
			</g>
			<path id="&lt;Path&gt;" fill-rule="evenodd" class="s1" d="m1704.2 1004.9h63.3v65.4h-63.3z"/>
		</g>
		<g id="&lt;Group&gt;">
			<g id="&lt;Group&gt;">
			</g>
		</g>
		<g id="&lt;Group&gt;">
			<g id="&lt;Group&gt;">
				<g id="&lt;Group&gt;">
				</g>
				<g id="&lt;Group&gt;">
				</g>
			</g>
		</g>
		<g id="&lt;Group&gt;">
			<g id="&lt;Group&gt;">
			</g>
		</g>
	</g>
	<g id="text">
		<g id="&lt;Group&gt;">
			<g id="&lt;Group&gt;">
				<g id="&lt;Group&gt;">
				</g>
				<g id="&lt;Group&gt;">
				</g>
			</g>
			<g id="&lt;Group&gt;">
				<g id="&lt;Group&gt;">
				</g>
				<g id="&lt;Group&gt;">
				</g>
			</g>
		</g>
	</g>
</svg>